<svg width="32" height="32" viewBox="0 0 32 32" fill="none" xmlns="http://www.w3.org/2000/svg">
<g id="Icon">
<path id="Vector" d="M15.9998 26.6558C10.1118 26.6558 5.34375 21.8878 5.34375 15.9998C5.34375 10.1118 10.1118 5.34375 15.9998 5.34375C21.8878 5.34375 26.6558 10.1118 26.6558 15.9998C26.6558 21.8878 21.8878 26.6558 15.9998 26.6558ZM15.9998 24.4798C20.6718 24.4798 24.4798 20.7038 24.4798 15.9998C24.4798 11.3278 20.7038 7.51975 15.9998 7.51975C11.3278 7.51975 7.51975 11.2958 7.51975 15.9998C7.51975 20.6718 11.2958 24.4798 15.9998 24.4798ZM15.3278 9.34375H16.6718C17.0558 9.34375 17.3438 9.63175 17.3118 9.98375L16.9598 16.9278C16.9598 17.1838 16.7678 17.3438 16.5438 17.3438H15.4558C15.2318 17.3438 15.0398 17.1518 15.0398 16.9278L14.6878 9.98375C14.6878 9.63175 14.9758 9.34375 15.3278 9.34375ZM15.4558 19.4558H16.5438C16.9278 19.4558 17.2158 19.7438 17.1838 20.1278V21.1838C17.1838 21.5678 16.8958 21.8558 16.5438 21.8558H15.4558C15.0718 21.8558 14.7838 21.5678 14.7838 21.1838V20.1278C14.7838 19.7438 15.0718 19.4558 15.4558 19.4558Z" fill="#FFDFDD"/>
</g>
</svg>
