<svg width="2em" height="2em" viewBox="0 0 24 24" fill="none" xmlns="http://www.w3.org/2000/svg">
<g id="Icon">
<path id="Shape" d="M10.6712 12L7.27521 8.60406C6.90826 8.23711 6.90826 7.64216 7.27521 7.27521C7.64216 6.90826 8.23711 6.90826 8.60406 7.27521L12 10.6712L15.3959 7.27521C15.7629 6.90826 16.3578 6.90826 16.7248 7.27521C17.0917 7.64216 17.0917 8.23711 16.7248 8.60406L13.3288 12L16.7248 15.3959C17.0917 15.7629 17.0917 16.3578 16.7248 16.7248C16.3578 17.0917 15.7629 17.0917 15.3959 16.7248L12 13.3288L8.60406 16.7248C8.23711 17.0917 7.64216 17.0917 7.27521 16.7248C6.90826 16.3578 6.90826 15.7629 7.27521 15.3959L10.6712 12Z" fill="white"/>
</g>
</svg>
